<svg xmlns="http://www.w3.org/2000/svg" viewBox="0 0 512 512">
  <defs>
    <linearGradient id="bg" x1="0" y1="0" x2="1" y2="1">
      <stop offset="0%" stop-color="#0f172a"/>
      <stop offset="100%" stop-color="#1e3a8a"/>
    </linearGradient>
    <linearGradient id="accent" x1="0" y1="0" x2="1" y2="0">
      <stop offset="0%" stop-color="#f59e0b"/>
      <stop offset="100%" stop-color="#f97316"/>
    </linearGradient>
  </defs>
  <rect x="24" y="24" width="464" height="464" rx="108" fill="url(#bg)"/>
  <circle cx="256" cy="228" r="124" fill="#ffffff"/>
  <path d="M156 136c-10 18-18 42-18 67 0 25 8 49 18 67" fill="none" stroke="#dc2626" stroke-width="12" stroke-linecap="round"/>
  <path d="M356 136c10 18 18 42 18 67 0 25-8 49-18 67" fill="none" stroke="#dc2626" stroke-width="12" stroke-linecap="round"/>
  <path d="M184 154c-15 10-28 22-39 36" fill="none" stroke="#dc2626" stroke-width="8" stroke-linecap="round"/>
  <path d="M184 302c-15-10-28-22-39-36" fill="none" stroke="#dc2626" stroke-width="8" stroke-linecap="round"/>
  <path d="M328 154c15 10 28 22 39 36" fill="none" stroke="#dc2626" stroke-width="8" stroke-linecap="round"/>
  <path d="M328 302c15-10 28-22 39-36" fill="none" stroke="#dc2626" stroke-width="8" stroke-linecap="round"/>
  <rect x="126" y="350" width="52" height="84" rx="10" fill="url(#accent)"/>
  <rect x="230" y="318" width="52" height="116" rx="10" fill="url(#accent)"/>
  <rect x="334" y="278" width="52" height="156" rx="10" fill="url(#accent)"/>
</svg>
